<?xml version="1.0" encoding="UTF-8"?>
<svg xmlns="http://www.w3.org/2000/svg" xmlns:xlink="http://www.w3.org/1999/xlink" width="430.3pt" height="208.4pt" viewBox="0 0 430.3 208.4" version="1.1">
<defs>
<clipPath id="clip1">
  <path d="M 232 151 L 430.300781 151 L 430.300781 208.398438 L 232 208.398438 Z M 232 151 "/>
</clipPath>
</defs>
<g id="surface1">
<path style=" stroke:none;fill-rule:evenodd;fill:rgb(30.979919%,72.068787%,28.24707%);fill-opacity:1;" d="M 131.203125 125.753906 C 128.609375 124.257813 126.183594 122.546875 123.9375 120.65625 L 130.003906 108.527344 L 135.269531 98.382813 L 183.277344 98.382813 L 189.910156 83.941406 L 141.90625 83.941406 L 147.566406 74.183594 C 150.035156 71.0625 153.746094 69.5 158.6875 69.5 L 205.058594 69.5 C 206.109375 73.550781 206.671875 77.800781 206.671875 82.183594 C 206.671875 109.96875 184.144531 132.496094 156.359375 132.496094 C 147.527344 132.496094 138.851563 130.167969 131.203125 125.753906 Z M 110.503906 102.882813 C 107.613281 96.480469 106.046875 89.441406 106.046875 82.183594 C 106.046875 54.398438 128.574219 31.871094 156.359375 31.871094 C 174.484375 31.871094 190.371094 41.460938 199.226563 55.839844 L 152.445313 55.839844 C 139.433594 55.710938 130.78125 60.785156 126.488281 71.0625 Z M 110.503906 102.882813 "/>
<path style=" stroke:none;fill-rule:evenodd;fill:rgb(30.979919%,72.068787%,28.24707%);fill-opacity:1;" d="M 121.214844 123.617188 C 86.691406 94.945313 85.464844 39.800781 130.929688 11.195313 L 96.414063 18.632813 C 66.929688 57.957031 84.484375 106.480469 121.214844 123.617188 Z M 121.214844 123.617188 "/>
<path style=" stroke:none;fill-rule:evenodd;fill:rgb(25.097656%,25.097656%,25.488281%);fill-opacity:1;" d="M 156.75 138.492188 C 105.867188 137.398438 69.273438 108.015625 70.160156 48.390625 L 59.207031 55.828125 C 62.335938 120.308594 110.609375 142.289063 156.75 138.492188 Z M 156.75 138.492188 "/>
<path style=" stroke:none;fill-rule:evenodd;fill:rgb(25.097656%,25.097656%,25.488281%);fill-opacity:1;" d="M 100.953125 82.695313 C 110.742188 2.660156 205.617188 16.164063 213.171875 75.875 C 209.324219 -0.0625 99.964844 -0.0078125 100.953125 82.695313 Z M 100.953125 82.695313 "/>
<path style=" stroke:none;fill-rule:evenodd;fill:rgb(30.979919%,72.068787%,28.24707%);fill-opacity:1;" d="M 55.425781 159.398438 L 68.492188 159.398438 L 72.066406 151.582031 L 30.96875 151.582031 C 23.523438 151.507813 18.574219 154.410156 16.117188 160.292969 L 4.390625 183.632813 L 0.0351563 192.007813 L 12.988281 192.007813 L 18.125 181.734375 L 21.140625 175.925781 L 48.613281 175.925781 L 52.410156 167.664063 L 24.9375 167.664063 L 28.175781 162.078125 C 29.59375 160.292969 31.714844 159.398438 34.542969 159.398438 Z M 106.683594 175.703125 L 103.445313 181.734375 C 102.105469 183.222656 100.617188 184.078125 98.980469 184.304688 L 81.335938 184.191406 C 78.582031 184.191406 77.167969 183.371094 77.089844 181.734375 L 80.21875 175.703125 Z M 107.46875 167.664063 L 76.085938 167.664063 C 73.035156 167.664063 70.875 168.855469 69.609375 171.238281 L 63.355469 183.632813 C 62.984375 184.75 62.796875 185.605469 62.796875 186.203125 C 62.796875 190.148438 67.039063 192.121094 75.527344 192.121094 L 97.191406 192.121094 C 107.019531 192.121094 113.164063 189.402344 115.617188 183.96875 L 127.457031 159.398438 C 127.234375 154.1875 122.058594 151.582031 111.933594 151.582031 L 78.988281 151.582031 L 75.304688 159.398438 L 109.8125 159.398438 C 111.894531 159.398438 113.050781 160.292969 113.273438 162.078125 L 110.257813 167.664063 Z M 165.3125 175.703125 C 165.015625 176.96875 163.9375 178.980469 162.078125 181.734375 C 161.035156 183.222656 159.65625 184.078125 157.945313 184.304688 L 122.765625 184.191406 L 117.964844 192.007813 L 156.15625 192.121094 C 165.984375 192.121094 172.128906 189.402344 174.582031 183.96875 L 178.15625 175.816406 C 180.613281 170.382813 179.3125 167.664063 174.25 167.664063 L 143.089844 167.664063 L 146.105469 162.078125 C 147.519531 160.292969 149.644531 159.398438 152.472656 159.398438 L 186.421875 159.398438 L 189.882813 151.582031 L 148.898438 151.582031 C 141.378906 151.433594 136.6875 153.816406 134.828125 158.730469 L 130.585938 167.21875 C 127.828125 172.875 128.574219 175.703125 132.816406 175.703125 Z M 222.378906 159.398438 L 236.003906 159.398438 L 239.691406 151.695313 L 210.207031 151.695313 L 218.023438 135.5 L 205.519531 135.5 L 193.792969 158.730469 L 181.285156 183.632813 C 180.914063 189.214844 184.894531 192.007813 193.234375 192.007813 L 207.082031 192.007813 L 212.441406 184.414063 L 199.265625 184.414063 C 196.582031 184.5625 195.167969 183.667969 195.019531 181.734375 L 205.070313 162.078125 L 206.746094 159.398438 Z M 222.378906 159.398438 "/>
<g clip-path="url(#clip1)" clip-rule="nonzero">
<path style=" stroke:none;fill-rule:evenodd;fill:rgb(25.097656%,25.097656%,25.488281%);fill-opacity:1;" d="M 271.960938 179.613281 L 269.394531 184.304688 L 280.671875 184.304688 C 281.863281 184.003906 282.90625 182.964844 283.800781 181.175781 L 293.515625 161.96875 L 298.652344 151.695313 L 311.605469 151.695313 L 307.25 160.070313 L 294.742188 184.972656 C 292.289063 189.738281 288.007813 192.121094 281.902344 192.121094 L 248.0625 192.121094 C 237.9375 192.121094 232.765625 189.515625 232.539063 184.304688 L 244.378906 159.734375 L 248.175781 151.695313 L 261.578125 151.695313 L 246.722656 181.625 C 246.949219 183.410156 248.101563 184.304688 250.1875 184.304688 L 258.785156 184.304688 L 260.792969 179.613281 L 274.308594 151.695313 L 285.808594 151.695313 Z M 347.230469 175.703125 L 343.992188 181.734375 C 342.652344 183.222656 341.164063 184.078125 339.527344 184.304688 L 321.878906 184.191406 C 319.125 184.191406 317.710938 183.371094 317.636719 181.734375 L 320.765625 175.703125 Z M 348.011719 167.664063 L 316.632813 167.664063 C 313.582031 167.664063 311.421875 168.855469 310.15625 171.238281 L 303.902344 183.632813 C 303.53125 184.75 303.34375 185.605469 303.34375 186.203125 C 303.34375 190.148438 307.585938 192.121094 316.074219 192.121094 L 337.738281 192.121094 C 347.566406 192.121094 353.707031 189.402344 356.164063 183.96875 L 368.003906 159.398438 C 367.78125 154.1875 362.605469 151.582031 352.480469 151.582031 L 319.535156 151.582031 L 315.851563 159.398438 L 350.359375 159.398438 C 352.441406 159.398438 353.597656 160.292969 353.820313 162.078125 L 350.804688 167.664063 Z M 418.03125 151.582031 L 430.316406 151.582031 L 426.96875 159.398438 L 415.128906 183.742188 L 410.996094 191.785156 L 406.863281 200.050781 C 403.960938 205.558594 399.679688 208.3125 394.023438 208.3125 L 350.246094 208.3125 L 354.265625 200.941406 L 387.546875 200.941406 C 391.492188 200.792969 394.359375 199.453125 396.144531 196.921875 L 398.714844 192.007813 L 375.039063 192.121094 C 366.550781 192.121094 362.308594 190.148438 362.308594 186.203125 C 362.308594 185.605469 362.492188 184.75 362.863281 183.632813 L 375.371094 158.730469 L 378.949219 151.582031 L 392.125 151.582031 L 386.652344 162.078125 L 376.601563 181.734375 C 376.675781 183.371094 378.089844 184.191406 380.84375 184.191406 L 398.488281 184.304688 L 402.398438 184.191406 L 412.785156 162.078125 Z M 418.03125 151.582031 "/>
</g>
</g>
</svg>
